<?xml version="1.0" encoding="utf-8"?>
<!-- Generator: Adobe Illustrator 16.0.0, SVG Export Plug-In . SVG Version: 6.00 Build 0)  -->
<!DOCTYPE svg PUBLIC "-//W3C//DTD SVG 1.1//EN" "http://www.w3.org/Graphics/SVG/1.1/DTD/svg11.dtd">
<svg version="1.1" id="Capa_1" xmlns="http://www.w3.org/2000/svg" xmlns:xlink="http://www.w3.org/1999/xlink" x="0px" y="0px"
	 width="595.28px" height="841.89px" viewBox="0 0 595.28 841.89" enable-background="new 0 0 595.28 841.89" xml:space="preserve">
<rect x="147.333" y="297" width="259.667" height="262.333"/>
<rect x="407" y="297" fill="#00004C" width="12.5" height="262.333"/>
<rect x="419.5" y="297" fill="#3A3A3A" width="27.834" height="262.333"/>
<polygon fill="#FFFFFF" stroke="#FFFFFF" stroke-miterlimit="10" points="171.5,364.25 227,418.75 275.25,368.5 222.25,315.5 "/>
<rect x="172.356" y="334.648" transform="matrix(0.722 -0.6919 0.6919 0.722 -179.5545 228.4007)" fill="#FFFFFF" stroke="#FFFFFF" stroke-miterlimit="10" width="44.205" height="6"/>
<polygon fill="#FFFFFF" stroke="#FFFFFF" stroke-miterlimit="10" points="236.75,315.5 277.5,355.107 336.25,297 254.5,297 "/>
<polygon fill="#FFFFFF" stroke="#FFFFFF" stroke-miterlimit="10" points="171.5,379.75 212.492,420.25 147.333,485.5 147.333,403.5 
	"/>
<ellipse transform="matrix(-0.7058 -0.7084 0.7084 -0.7058 165.0592 882.1206)" fill="#FFFFFF" stroke="#000000" stroke-miterlimit="10" cx="265.693" cy="406.787" rx="18.867" ry="47.349"/>
<polygon fill="#FFFFFF" stroke="#FFFFFF" stroke-miterlimit="10" points="285.003,413.719 294.75,433.75 273.651,425.173 "/>
<path fill="#FFFFFF" stroke="#FFFFFF" stroke-miterlimit="10" d="M292.75,454.5"/>
<path fill="#FFFFFF" stroke="#FFFFFF" stroke-miterlimit="10" d="M291.75,454.5l1,15c0,0,29-4,32.25-31l-14.723-1.109
	C310.277,437.391,309,453.5,291.75,454.5z"/>
<path fill="#FFFFFF" stroke="#FFFFFF" stroke-miterlimit="10" d="M291.906,485.906l0.844,13.594c61.25-4.5,62.5-62.109,62.5-62.109
	l-14-2.641c-6.25,51.25-49.438,49.703-49.438,49.703L291.906,485.906z"/>
<path fill="#FFFFFF" stroke="#FFFFFF" stroke-miterlimit="10" d="M381.25,434.75c0,0-4,79-89.5,90l1,15.75
	c0,0,86.25-4.25,104.25-103.109L381.25,434.75z"/>
<g>
	<path fill="#FFFFFF" d="M423.438,542.156c-0.076-5.191,4.611-9.046,10.162-9.004c5.52-0.042,10.236,3.813,10.161,9.004v16.826
		h-20.323V542.156z M429.879,543.535v8.075h7.439v-8.075c0-1.913-1.678-2.997-3.719-2.997
		C431.543,540.538,429.879,541.622,429.879,543.535z"/>
	<path fill="#FFFFFF" d="M423.438,530.975v-22.13h5.201v14.758h2.602v-14.758h4.703v14.758h2.601v-14.758h5.217v22.13H423.438z"/>
	<path fill="#FFFFFF" d="M431.271,493.877c0.287-5.275,0.681-12.69,5.776-12.676c5.807,0,7.183,6.19,7.183,12.83
		c-0.015,6.627-0.877,12.128-7.183,12.831v-7.724c1.572-0.845,1.98-2.8,1.98-5.107c0-2.293-0.408-5.106-1.98-5.106
		c-0.893,0-1.028,2.293-1.18,5.262c-0.287,5.275-0.68,12.689-5.762,12.676c-5.807,0-7.197-6.19-7.197-12.831
		c0.045-6.626,0.847-12.127,7.197-12.83v7.724c-1.602,0.844-1.98,2.8-1.98,5.106c0,2.294,0.363,5.107,1.98,5.107
		C430.998,499.139,431.119,496.846,431.271,493.877z"/>
	<path fill="#FFFFFF" d="M423.438,471.215v-8.765l20.323-10.144v8.301l-3.478,1.491v9.468l3.478,1.491v8.301L423.438,471.215z
		 M435.322,469.428v-5.191l-6.002,2.589L435.322,469.428z"/>
	<path fill="#FFFFFF" d="M423.438,451.746v-23.059h6.441v15.686h2.48v-13.844h5.942v13.844h5.459v7.373H423.438z"/>
	<path fill="#FFFFFF" d="M423.407,419.208h20.323v7.373h-20.323V419.208z"/>
	<path fill="#FFFFFF" d="M432.828,391.226h1.482c7.682-0.028,9.904,5.796,9.919,12.901c-0.015,7.119-2.237,12.943-9.919,12.915
		h-1.482c-7.697,0.028-9.904-5.796-9.92-12.915C422.908,397.008,425.146,391.226,432.828,391.226z M433.313,398.598
		c-3.313-0.042-3.917,2.518-3.963,5.529c0.046,3.025,0.65,5.585,3.963,5.543h0.498c3.327,0.042,3.932-2.518,3.977-5.543
		c-0.045-3.011-0.649-5.571-3.977-5.529H433.313z"/>
</g>
<g>
	<path fill="#FFFFFF" d="M431.261,363.322c0.287-5.425,0.681-13.048,5.776-13.033c5.807,0,7.183,6.364,7.183,13.192
		c-0.015,6.813-0.877,12.469-7.183,13.192v-7.942c1.572-0.868,1.98-2.878,1.98-5.25c0-2.358-0.408-5.251-1.98-5.251
		c-0.893,0-1.028,2.357-1.18,5.41c-0.287,5.425-0.68,13.048-5.762,13.034c-5.807,0-7.197-6.365-7.197-13.192
		c0.045-6.813,0.847-12.469,7.197-13.192v7.941c-1.602,0.868-1.98,2.878-1.98,5.251c0,2.357,0.363,5.25,1.98,5.25
		C430.988,368.731,431.109,366.374,431.261,363.322z"/>
	<path fill="#FFFFFF" d="M423.428,340.024v-9.012l20.323-10.43v8.535l-3.478,1.533v9.735l3.478,1.534v8.535L423.428,340.024z
		 M435.313,338.187v-5.338l-6.002,2.662L435.313,338.187z"/>
	<path fill="#FFFFFF" d="M423.428,320.01v-23.708h6.441v16.129h2.48v-14.234h5.942v14.234h5.459v7.58H423.428z"/>
</g>
</svg>
