<?xml version="1.0" encoding="utf-8"?>
<!-- Generator: Adobe Illustrator 16.0.0, SVG Export Plug-In . SVG Version: 6.00 Build 0)  -->
<!DOCTYPE svg PUBLIC "-//W3C//DTD SVG 1.1//EN" "http://www.w3.org/Graphics/SVG/1.1/DTD/svg11.dtd">
<svg version="1.1" id="Capa_1" xmlns="http://www.w3.org/2000/svg" xmlns:xlink="http://www.w3.org/1999/xlink" x="0px" y="0px"
	 width="595.28px" height="841.89px" viewBox="0 0 595.28 841.89" enable-background="new 0 0 595.28 841.89" xml:space="preserve">
<rect x="147.333" y="297" width="259.667" height="262.333"/>
<rect x="627.682" y="287.933" fill="#00004C" width="12.5" height="262.333"/>
<rect x="640.182" y="287.933" fill="#3A3A3A" width="27.834" height="262.333"/>
<polygon fill="#FFFFFF" stroke="#FFFFFF" stroke-miterlimit="10" points="171.5,364.25 227,418.75 275.25,368.5 222.25,315.5 "/>
<rect x="172.356" y="334.648" transform="matrix(0.722 -0.6919 0.6919 0.722 -179.5545 228.4007)" fill="#FFFFFF" stroke="#FFFFFF" stroke-miterlimit="10" width="44.205" height="6"/>
<polygon fill="#FFFFFF" stroke="#FFFFFF" stroke-miterlimit="10" points="236.75,315.5 277.5,355.107 336.25,297 254.5,297 "/>
<polygon fill="#FFFFFF" stroke="#FFFFFF" stroke-miterlimit="10" points="171.5,379.75 212.492,420.25 147.333,485.5 147.333,403.5 
	"/>
<ellipse transform="matrix(-0.7058 -0.7084 0.7084 -0.7058 165.0592 882.1206)" fill="#FFFFFF" stroke="#000000" stroke-miterlimit="10" cx="265.693" cy="406.787" rx="18.867" ry="47.349"/>
<polygon fill="#FFFFFF" stroke="#FFFFFF" stroke-miterlimit="10" points="285.003,413.719 294.75,433.75 273.651,425.173 "/>
<path fill="#FFFFFF" stroke="#FFFFFF" stroke-miterlimit="10" d="M292.75,454.5"/>
<path fill="#FFFFFF" stroke="#FFFFFF" stroke-miterlimit="10" d="M292.75,454.5l1,15c0,0,29-4,32.25-31l-14.723-1.109
	C311.277,437.391,310,453.5,292.75,454.5z"/>
<path fill="#FFFFFF" stroke="#FFFFFF" stroke-miterlimit="10" d="M292.906,485.906l0.844,13.594c61.25-4.5,62.5-62.109,62.5-62.109
	l-14-2.641c-6.25,51.25-49.438,49.703-49.438,49.703L292.906,485.906z"/>
<path fill="#FFFFFF" stroke="#FFFFFF" stroke-miterlimit="10" d="M382.25,434.75c0,0-4,79-89.5,90l1,15.75
	c0,0,86.25-4.25,104.25-103.109L382.25,434.75z"/>
<g>
	<path fill="#FFFFFF" d="M644.118,532.875c-0.076-5.185,4.605-9.033,10.147-8.991c5.512-0.042,10.223,3.807,10.147,8.991v16.802
		h-20.295V532.875z M650.551,534.252v8.063h7.429v-8.063c0-1.911-1.675-2.993-3.714-2.993
		C652.212,531.259,650.551,532.341,650.551,534.252z"/>
	<path fill="#FFFFFF" d="M644.118,521.709V499.61h5.194v14.737h2.598V499.61h4.696v14.737h2.597V499.61h5.21v22.099H644.118z"/>
	<path fill="#FFFFFF" d="M651.94,484.664c0.286-5.269,0.68-12.673,5.768-12.658c5.799,0,7.173,6.182,7.173,12.813
		c-0.015,6.617-0.876,12.11-7.173,12.813v-7.713c1.57-0.844,1.979-2.796,1.979-5.1c0-2.29-0.408-5.1-1.979-5.1
		c-0.891,0-1.026,2.29-1.178,5.254c-0.286,5.269-0.679,12.672-5.753,12.658c-5.799,0-7.188-6.182-7.188-12.813
		c0.045-6.617,0.846-12.11,7.188-12.813v7.713c-1.6,0.843-1.979,2.796-1.979,5.1c0,2.29,0.363,5.1,1.979,5.1
		C651.668,489.918,651.789,487.628,651.94,484.664z"/>
	<path fill="#FFFFFF" d="M644.118,462.034v-8.753l20.295-10.129v8.289l-3.473,1.489v9.454l3.473,1.489v8.289L644.118,462.034z
		 M655.986,460.249v-5.184l-5.993,2.585L655.986,460.249z"/>
	<path fill="#FFFFFF" d="M644.118,442.593v-23.025h6.433v15.663h2.477v-13.824h5.935v13.824h5.451v7.362H644.118z"/>
	<path fill="#FFFFFF" d="M644.088,410.101h20.295v7.362h-20.295V410.101z"/>
	<path fill="#FFFFFF" d="M653.496,382.158h1.479c7.671-0.028,9.891,5.788,9.905,12.883c-0.015,7.108-2.234,12.924-9.905,12.896
		h-1.479c-7.687,0.028-9.891-5.788-9.906-12.896C643.59,387.932,645.825,382.158,653.496,382.158z M653.979,389.52
		c-3.308-0.042-3.911,2.514-3.957,5.521c0.046,3.021,0.649,5.577,3.957,5.535h0.497c3.322,0.042,3.926-2.514,3.971-5.535
		c-0.045-3.007-0.648-5.563-3.971-5.521H653.979z"/>
</g>
<g>
	<path fill="#FFFFFF" d="M651.942,354.254c0.287-5.425,0.681-13.048,5.776-13.033c5.807,0,7.183,6.364,7.183,13.192
		c-0.015,6.813-0.877,12.469-7.183,13.192v-7.942c1.572-0.868,1.98-2.878,1.98-5.25c0-2.358-0.408-5.251-1.98-5.251
		c-0.893,0-1.028,2.357-1.18,5.41c-0.287,5.425-0.68,13.048-5.762,13.034c-5.807,0-7.197-6.365-7.197-13.192
		c0.045-6.813,0.847-12.469,7.197-13.192v7.941c-1.602,0.868-1.98,2.878-1.98,5.251c0,2.357,0.363,5.25,1.98,5.25
		C651.67,359.664,651.791,357.306,651.942,354.254z"/>
	<path fill="#FFFFFF" d="M644.109,330.957v-9.012l20.323-10.43v8.535l-3.478,1.533v9.735l3.478,1.534v8.535L644.109,330.957z
		 M655.994,329.12v-5.338l-6.002,2.662L655.994,329.12z"/>
	<path fill="#FFFFFF" d="M644.109,310.943v-23.708h6.441v16.129h2.48v-14.234h5.942v14.234h5.459v7.58H644.109z"/>
</g>
</svg>
