<?xml version="1.0" encoding="utf-8"?>
<!-- Generator: Adobe Illustrator 16.0.0, SVG Export Plug-In . SVG Version: 6.00 Build 0)  -->
<!DOCTYPE svg PUBLIC "-//W3C//DTD SVG 1.1//EN" "http://www.w3.org/Graphics/SVG/1.1/DTD/svg11.dtd">
<svg version="1.1" id="Capa_1" xmlns="http://www.w3.org/2000/svg" xmlns:xlink="http://www.w3.org/1999/xlink" x="0px" y="0px"
	 width="275px" height="269px" viewBox="0 0 275 269" enable-background="new 0 0 275 269" xml:space="preserve">
<polygon fill="#FFFFFF" stroke="#000000" stroke-miterlimit="10" points="35.5,77.25 91,131.75 139.25,81.5 86.25,28.5 "/>
<rect x="36.356" y="47.648" transform="matrix(0.722 -0.6919 0.6919 0.722 -18.7922 54.5251)" fill="#FFFFFF" stroke="#000000" stroke-miterlimit="10" width="44.205" height="6"/>
<polygon fill="#FFFFFF" stroke="#000000" stroke-miterlimit="10" points="100.75,28.5 141.5,68.107 200.25,10 118.5,10 "/>
<polygon fill="#FFFFFF" stroke="#000000" stroke-miterlimit="10" points="35.5,92.75 76.492,133.25 11.333,198.5 11.333,116.5 "/>
<ellipse transform="matrix(-0.7058 -0.7084 0.7084 -0.7058 136.3765 296.2087)" fill="#FFFFFF" stroke="#000000" stroke-miterlimit="10" cx="129.693" cy="119.787" rx="18.867" ry="47.349"/>
<polygon fill="#FFFFFF" stroke="#000000" stroke-miterlimit="10" points="149.004,126.719 158.75,146.75 137.651,138.173 "/>
<path fill="#FFFFFF" stroke="#000000" stroke-miterlimit="10" d="M156.75,167.5"/>
<path fill="#FFFFFF" stroke="#000000" stroke-miterlimit="10" d="M156.75,167.5l1,15c0,0,29-4,32.25-31l-14.723-1.109
	C175.277,150.391,174,166.5,156.75,167.5z"/>
<path fill="#FFFFFF" stroke="#000000" stroke-miterlimit="10" d="M156.906,198.906l0.844,13.594c61.25-4.5,62.5-62.109,62.5-62.109
	l-14-2.641c-6.25,51.25-49.438,49.703-49.438,49.703L156.906,198.906z"/>
<path fill="#FFFFFF" stroke="#000000" stroke-miterlimit="10" d="M246.25,147.75c0,0-4,79-89.5,90l1,15.75
	c0,0,86.25-4.25,104.25-103.109L246.25,147.75z"/>
</svg>
